<svg
  width="32"
  height="33"
  viewBox="0 0 32 33"
  fill="none"
  xmlns="http://www.w3.org/2000/svg"
>
  <path
    d="M29.3333 15.2733V16.5C29.3317 19.3752 28.4006 22.1729 26.6791 24.4758C24.9575 26.7786 22.5377 28.4633 19.7804 29.2785C17.0232 30.0938 14.0763 29.9959 11.3793 28.9994C8.6822 28.003 6.3795 26.1615 4.81457 23.7494C3.24965 21.3374 2.50635 18.4841 2.69553 15.6151C2.88471 12.7461 3.99624 10.0151 5.86433 7.82943C7.73243 5.64376 10.257 4.12051 13.0615 3.48686C15.8661 2.85321 18.8003 3.14312 21.4266 4.31333M29.3333 5.83333L16 19.18L12 15.18"
    stroke="url(#paint0_linear_214_728)"
    stroke-width="3"
    stroke-linecap="round"
    stroke-linejoin="round"
  />
  <defs>
    <linearGradient
      id="paint0_linear_214_728"
      x1="2.66663"
      y1="16.4924"
      x2="29.3333"
      y2="16.4924"
      gradientUnits="userSpaceOnUse"
    >
      <stop stop-color="#D93FD3" />
      <stop offset="1" stop-color="#7247E9" />
    </linearGradient>
  </defs>
</svg>
