<svg width="32" height="33" viewBox="0 0 32 33" fill="none" xmlns="http://www.w3.org/2000/svg">
<path d="M21.3334 5.83333H24C24.7073 5.83333 25.3856 6.11429 25.8857 6.61438C26.3858 7.11448 26.6667 7.79276 26.6667 8.5V27.1667C26.6667 27.8739 26.3858 28.5522 25.8857 29.0523C25.3856 29.5524 24.7073 29.8333 24 29.8333H8.00004C7.2928 29.8333 6.61452 29.5524 6.11442 29.0523C5.61433 28.5522 5.33337 27.8739 5.33337 27.1667V8.5C5.33337 7.79276 5.61433 7.11448 6.11442 6.61438C6.61452 6.11429 7.2928 5.83333 8.00004 5.83333H10.6667M12 3.16667H20C20.7364 3.16667 21.3334 3.76362 21.3334 4.5V7.16667C21.3334 7.90305 20.7364 8.5 20 8.5H12C11.2637 8.5 10.6667 7.90305 10.6667 7.16667V4.5C10.6667 3.76362 11.2637 3.16667 12 3.16667Z" stroke="url(#paint0_linear_214_744)" stroke-width="3" stroke-linecap="round" stroke-linejoin="round"/>
<defs>
<linearGradient id="paint0_linear_214_744" x1="5.33337" y1="16.5" x2="26.6667" y2="16.5" gradientUnits="userSpaceOnUse">
<stop stop-color="#D93FD3"/>
<stop offset="1" stop-color="#7247E9"/>
</linearGradient>
</defs>
</svg>
