<svg width="20" height="21" viewBox="0 0 20 21" fill="none" xmlns="http://www.w3.org/2000/svg">
<g clip-path="url(#clip0_506_533)">
<path d="M0.833374 3.83333V8.83333M0.833374 8.83333H5.83337M0.833374 8.83333L4.70004 5.2C5.59566 4.30393 6.70368 3.64934 7.92071 3.29731C9.13774 2.94528 10.4241 2.90729 11.6598 3.18688C12.8955 3.46647 14.0402 4.05453 14.9872 4.89618C15.9341 5.73784 16.6524 6.80566 17.075 8M19.1667 17.1667V12.1667M19.1667 12.1667H14.1667M19.1667 12.1667L15.3 15.8C14.4044 16.6961 13.2964 17.3507 12.0794 17.7027C10.8623 18.0547 9.57596 18.0927 8.34028 17.8131C7.10459 17.5335 5.95987 16.9455 5.01293 16.1038C4.06598 15.2622 3.34768 14.1943 2.92504 13" stroke="white" stroke-width="2" stroke-linecap="round" stroke-linejoin="round"/>
</g>
<defs>
<clipPath id="clip0_506_533">
<rect width="20" height="20" fill="white" transform="translate(0 0.5)"/>
</clipPath>
</defs>
</svg>
