<svg width="25" height="24" viewBox="0 0 25 24" fill="none" xmlns="http://www.w3.org/2000/svg">
<path fill-rule="evenodd" clip-rule="evenodd" d="M16.3334 3.24268H8.33337C5.57195 3.24268 3.33337 5.48126 3.33337 8.24268V16.2427C3.33337 19.0041 5.57195 21.2427 8.33337 21.2427H16.3334C19.0948 21.2427 21.3334 19.0041 21.3334 16.2427V8.24268C21.3334 5.48126 19.0948 3.24268 16.3334 3.24268ZM19.5834 16.2427C19.5779 18.0353 18.126 19.4872 16.3334 19.4927H8.33337C6.54072 19.4872 5.08886 18.0353 5.08337 16.2427V8.24268C5.08886 6.45003 6.54072 4.99817 8.33337 4.99268H16.3334C18.126 4.99817 19.5779 6.45003 19.5834 8.24268V16.2427ZM17.0834 8.49268C17.6357 8.49268 18.0834 8.04496 18.0834 7.49268C18.0834 6.9404 17.6357 6.49268 17.0834 6.49268C16.5311 6.49268 16.0834 6.9404 16.0834 7.49268C16.0834 8.04496 16.5311 8.49268 17.0834 8.49268ZM12.3334 7.74268C9.84809 7.74268 7.83337 9.7574 7.83337 12.2427C7.83337 14.728 9.84809 16.7427 12.3334 16.7427C14.8187 16.7427 16.8334 14.728 16.8334 12.2427C16.8361 11.0484 16.3628 9.90225 15.5183 9.05776C14.6738 8.21327 13.5277 7.74002 12.3334 7.74268ZM9.58337 12.2427C9.58337 13.7615 10.8146 14.9927 12.3334 14.9927C13.8522 14.9927 15.0834 13.7615 15.0834 12.2427C15.0834 10.7239 13.8522 9.49268 12.3334 9.49268C10.8146 9.49268 9.58337 10.7239 9.58337 12.2427Z" fill="white"/>
</svg>
