<svg width="25" height="24" viewBox="0 0 25 24" fill="none" xmlns="http://www.w3.org/2000/svg">
<path fill-rule="evenodd" clip-rule="evenodd" d="M4.83337 3.24268C4.00494 3.24268 3.33337 3.91425 3.33337 4.74268V19.7427C3.33337 20.5711 4.00494 21.2427 4.83337 21.2427H19.8334C20.6618 21.2427 21.3334 20.5711 21.3334 19.7427V4.74268C21.3334 3.91425 20.6618 3.24268 19.8334 3.24268H4.83337ZM8.85413 7.2454C8.85976 8.20165 8.14398 8.79087 7.2946 8.78665C6.49444 8.78243 5.79694 8.1454 5.80116 7.24681C5.80538 6.40165 6.47335 5.72243 7.34101 5.74212C8.22132 5.76181 8.85976 6.40728 8.85413 7.2454ZM12.6131 10.0044H10.0931H10.0917V18.5643H12.7551V18.3646C12.7551 17.9847 12.7548 17.6047 12.7545 17.2246C12.7537 16.2108 12.7528 15.1959 12.758 14.1824C12.7594 13.9363 12.7706 13.6804 12.8339 13.4455C13.0715 12.568 13.8605 12.0013 14.7408 12.1406C15.3061 12.2291 15.6801 12.5568 15.8376 13.0898C15.9347 13.423 15.9783 13.7816 15.9825 14.129C15.9939 15.1766 15.9923 16.2242 15.9907 17.2719C15.9901 17.6417 15.9895 18.0117 15.9895 18.3815V18.5629H18.6614V18.3576C18.6614 17.9056 18.6612 17.4537 18.6609 17.0018C18.6604 15.8723 18.6598 14.7428 18.6628 13.6129C18.6642 13.1024 18.6094 12.599 18.4842 12.1054C18.2972 11.3713 17.9105 10.7638 17.2819 10.3251C16.8361 10.0129 16.3467 9.81178 15.7997 9.78928C15.7374 9.78669 15.6746 9.7833 15.6115 9.77989C15.3318 9.76477 15.0475 9.74941 14.7801 9.80334C14.0151 9.95662 13.343 10.3068 12.8353 10.9241C12.7763 10.9949 12.7186 11.0668 12.6325 11.1741L12.6131 11.1984V10.0044ZM6.01501 18.5671H8.66579V10.01H6.01501V18.5671Z" fill="white"/>
</svg>
