<svg width="50" height="30" viewBox="0 0 50 30" xmlns="http://www.w3.org/2000/svg">
  <g clip-path="url(#clip04">
    <rect width="50" height="7.5" fill="#AD1519"/>
    <rect y="7.5" width="50" height="15" fill="#FABD00"/>
    <rect y="22.5" width="50" height="7.5" fill="#AD1519"/>
    <g fill="#EA596E">
      <circle cx="15" cy="17" r="3"/>
      <rect x="12" y="15" width="6" height="2"/>
      <ellipse cx="15" cy="11.5" rx="3" ry="1.5"/>
    </g>
    <rect x="15" y="13" width="3" height="3" fill="#F4A2B2"/>
    <rect x="12" y="13" width="3" height="3" fill="#DD2E44"/>
    <ellipse cx="15" cy="11" rx="3" ry="1" fill="#FFAC33"/>
    <g fill="#99AAB5">
      <rect x="10" y="13" width="1" height="6"/>
      <rect x="19" y="13" width="1" height="6"/>
    </g>
    <g fill="#66757F">
      <rect x="10" y="12" width="1" height="1"/>
      <rect x="19" y="12" width="1" height="1"/>
      <rect x="9" y="19" width="3" height="1"/>
      <rect x="18" y="19" width="3" height="1"/>
    </g>
  </g>
  <defs>
    <clipPath id="clip04">
      <rect width="50" height="30" rx="6"/>
    </clipPath>
  </defs>
</svg>
