<svg width="50" height="30" viewBox="0 0 50 30" fill="none" xmlns="http://www.w3.org/2000/svg">
<g clip-path="url(#clip03)">
<rect width="50" height="30" fill="white"/>
  <g fill="#C8102E">
    <rect x="22" width="6" height="30"/>
    <rect y="12" width="50" height="6"/>
  </g>
  <g fill="#012169">
    <polygon points="39.1643,10 50,3.49857 50,10"/>
    <polygon points="30,0 44.169,0 30,8.50143"/>
    <polygon points="20,0 5.83096,0 20,8.50143"/>
    <polygon points="0,3.49857 10.8357,10 0,10"/>
    <polygon points="10.8357,20 0,20 0,26.5014"/>
    <polygon points="5.83096,30 20,30 20,21.4986"/>
    <polygon points="30,30 44.169,30 30,21.4986"/>
    <polygon points="50,20 39.1643,20 50,26.5014"/>
  </g>
  <g fill="#C8102E">
    <polygon points="16.6667,10 0,0 0,2.33238 12.7794,10"/>
    <polygon points="33.3333,20 50,30 50,27.6676 37.2206,20"/>
    <polygon points="20,20 16.6667,20 0,30 3.8873,30 20,20.3324"/>
    <polygon points="33.3333,10 50,0 46.1127,0 30,9.66762 30,10 33.3333,10"/>
  </g>
</g>
<defs>
<clipPath id="clip03">
<rect width="50" height="30" rx="6"/>
</clipPath>
</defs>
</svg>
