<svg width="48" height="50" viewBox="0 0 48 35" style="border: 1px solid" fill="none" xmlns="http://www.w3.org/2000/svg">
<g>
<path d="M43.4118 1.02887H6.07851C4.66402 1.02887 3.30747 1.59077 2.30728 2.59097C1.30708 3.59116 0.745178 4.94772 0.745178 6.3622L0.745178 18.3622H48.7452V6.3622C48.7452 4.94772 48.1833 3.59116 47.1831 2.59097C46.1829 1.59077 44.8263 1.02887 43.4118 1.02887Z" fill="#EEEEEE"/>
<path d="M0.745178 30.3622C0.745178 31.7767 1.30708 33.1333 2.30728 34.1335C3.30747 35.1337 4.66402 35.6956 6.07851 35.6956H43.4118C44.8263 35.6956 46.1829 35.1337 47.1831 34.1335C48.1833 33.1333 48.7452 31.7767 48.7452 30.3622V18.3622H0.745178V30.3622Z" fill="#DC143C"/>
</g>
</svg>
