<svg width="25" height="24" viewBox="0 0 25 24" fill="none" xmlns="http://www.w3.org/2000/svg">
<path d="M21.9264 7.20301C21.8125 6.78041 21.5899 6.39501 21.2807 6.08518C20.9716 5.77534 20.5867 5.55187 20.1644 5.43701C18.5984 5.00701 12.3334 5.00001 12.3334 5.00001C12.3334 5.00001 6.06937 4.99301 4.50237 5.40401C4.0803 5.52415 3.6962 5.75078 3.38694 6.06214C3.07768 6.3735 2.85366 6.75913 2.73637 7.18201C2.32337 8.74801 2.31937 11.996 2.31937 11.996C2.31937 11.996 2.31537 15.26 2.72537 16.81C2.95537 17.667 3.63037 18.344 4.48837 18.575C6.07037 19.005 12.3184 19.012 12.3184 19.012C12.3184 19.012 18.5834 19.019 20.1494 18.609C20.5719 18.4943 20.9571 18.2714 21.267 17.9622C21.5769 17.653 21.8008 17.2682 21.9164 16.846C22.3304 15.281 22.3334 12.034 22.3334 12.034C22.3334 12.034 22.3534 8.76901 21.9264 7.20301ZM10.3294 15.005L10.3344 9.00501L15.5414 12.01L10.3294 15.005Z" fill="white"/>
</svg>
